<svg version="1.1" xmlns="http://www.w3.org/2000/svg" viewBox="0 0 1737.8548177083335 909.2424357219971" width="3475.709635416667" height="1818.4848714439943">
  <!-- svg-source:excalidraw -->
  
  <defs>
    <style class="style-fonts">
      @font-face {
        font-family: "Virgil";
        src: url("https://excalidraw.com/Virgil.woff2");
      }
      @font-face {
        font-family: "Cascadia";
        src: url("https://excalidraw.com/Cascadia.woff2");
      }
    </style>
  </defs>
  <rect x="0" y="0" width="1737.8548177083335" height="909.2424357219971" fill="#ffffff"></rect><g stroke-linecap="round"><g transform="translate(125.96354166666663 235.25520833333334) rotate(0 333.6479028966488 -0.060592429974349216)"><path d="M0.67 -0.85 C111.67 -0.94, 554.63 -1.61, 665.57 -1.4 M-0.43 1.32 C110.95 1.4, 556.76 0.02, 667.73 -0.48" stroke="#0b7285" stroke-width="1" fill="none"></path></g><g transform="translate(125.96354166666663 235.25520833333334) rotate(0 333.6479028966488 -0.060592429974349216)"><path d="M638.16 8.14 C645.25 6.44, 655.78 4.75, 667.73 -0.11 M639.5 9.54 C651.36 6.36, 661.2 2.62, 666.82 -0.85" stroke="#0b7285" stroke-width="1" fill="none"></path></g><g transform="translate(125.96354166666663 235.25520833333334) rotate(0 333.6479028966488 -0.060592429974349216)"><path d="M638.08 -12.38 C645.05 -8.58, 655.59 -4.78, 667.73 -0.11 M639.42 -10.98 C651.41 -6.26, 661.28 -2.11, 666.82 -0.85" stroke="#0b7285" stroke-width="1" fill="none"></path></g></g><mask></mask><g transform="translate(374.88802083333314 195.39453124999997) rotate(0 89.5 12.5)"><text x="0" y="18" font-family="Virgil, Segoe UI Emoji" font-size="20px" fill="#0b7285" text-anchor="start" style="white-space: pre;" direction="ltr">Request (buy/sell)</text></g><g stroke-linecap="round"><g transform="translate(122.74088541666674 98.97135416666671) rotate(0 -3.359173578891671 387.5036083522407)"><path d="M-0.1 1.1 C-0.9 130.02, -4.61 644.34, -5.39 773.27 M-1.62 0.63 C-2.56 129.71, -5.97 645.7, -6.61 774.38" stroke="#0b7285" stroke-width="1" fill="none"></path></g></g><mask></mask><g stroke-linecap="round" transform="translate(10 10.957031250000057) rotate(0 110.39388020833326 40.69010416666667)"><path d="M2.94 7.86 C2.94 7.86, 2.94 7.86, 2.94 7.86 M2.94 7.86 C2.94 7.86, 2.94 7.86, 2.94 7.86 M0.71 16.52 C2.77 11.74, 7.85 10.8, 10.55 5.2 M0.71 16.52 C3.37 14.74, 4.4 11.29, 10.55 5.2 M1.11 22.16 C8.4 15.74, 14.56 8.45, 20.13 0.27 M1.11 22.16 C5.22 17.36, 9.2 12.55, 20.13 0.27 M0.84 28.56 C11.37 15.94, 17.04 9.03, 25.77 -0.12 M0.84 28.56 C7.76 20.36, 15.13 12.86, 25.77 -0.12 M1.24 34.2 C9.38 26.16, 13.53 20.1, 30.76 0.24 M1.24 34.2 C7.85 28.23, 13.59 20.69, 30.76 0.24 M0.98 40.6 C7.59 32.48, 17.44 24.06, 36.4 -0.15 M0.98 40.6 C11.55 27.81, 21.54 16.14, 36.4 -0.15 M0.72 47 C11.59 36.22, 21.16 23.71, 41.39 0.21 M0.72 47 C10.95 34.97, 19.98 24.34, 41.39 0.21 M1.11 52.64 C13.08 38.78, 24.71 26.45, 47.03 -0.19 M1.11 52.64 C16.1 35.51, 32.52 17.28, 47.03 -0.19 M0.85 59.04 C18.94 36.81, 41.28 13.13, 52.02 0.17 M0.85 59.04 C19.45 37.45, 39.18 15.23, 52.02 0.17 M1.24 64.68 C13.09 49.94, 28.29 35.57, 57.66 -0.22 M1.24 64.68 C18.53 46.63, 32.62 27.12, 57.66 -0.22 M3.61 68.06 C24.59 40.45, 50.17 15.43, 62.65 0.14 M3.61 68.06 C27.42 42.01, 50.14 14.66, 62.65 0.14 M5.31 72.19 C25.41 48.63, 48.42 21.73, 68.29 -0.26 M5.31 72.19 C24.23 50.81, 41.05 30.82, 68.29 -0.26 M6.36 77.08 C19.35 59.49, 35.72 41.82, 73.28 0.1 M6.36 77.08 C23.23 56.11, 40.31 38.06, 73.28 0.1 M9.38 79.71 C23.87 61.68, 40.21 45.74, 78.92 -0.29 M9.38 79.71 C33.39 51.91, 59.5 22.6, 78.92 -0.29 M13.06 81.58 C29.58 65.83, 44.25 44.97, 83.91 0.07 M13.06 81.58 C32.63 59.85, 50.72 39.78, 83.91 0.07 M18.04 81.94 C43.52 51.91, 72.27 22.88, 89.55 -0.33 M18.04 81.94 C41.65 55.76, 64.13 29.73, 89.55 -0.33 M22.38 83.05 C48.41 50.76, 74.97 21.23, 94.54 0.03 M22.38 83.05 C41.5 61.99, 59.49 41.87, 94.54 0.03 M27.36 83.41 C40.56 66.91, 56.74 50.66, 100.18 -0.36 M27.36 83.41 C52.75 56.84, 76.12 28.21, 100.18 -0.36 M33.01 83.02 C59.46 53.81, 87.7 20.67, 105.17 0 M33.01 83.02 C52.99 59.75, 72.19 39.17, 105.17 0 M37.99 83.38 C58.21 57.98, 78.19 36.48, 110.16 0.36 M37.99 83.38 C60.96 57.02, 82.48 31.9, 110.16 0.36 M43.64 82.98 C56.04 65.41, 71.34 49.66, 115.8 -0.04 M43.64 82.98 C62.44 61.69, 80.21 40.81, 115.8 -0.04 M48.62 83.34 C76.84 50.89, 103.58 17.45, 120.79 0.32 M48.62 83.34 C69.99 59.17, 91.7 34.85, 120.79 0.32 M54.27 82.95 C82.32 49.69, 111.2 17.36, 126.43 -0.07 M54.27 82.95 C78.02 55.38, 101.5 29.6, 126.43 -0.07 M59.25 83.31 C76.9 61.2, 96.92 39.6, 131.42 0.29 M59.25 83.31 C83.25 54.69, 107.77 27.43, 131.42 0.29 M64.9 82.91 C82.82 58.15, 103.34 37.85, 137.06 -0.1 M64.9 82.91 C89.6 54.35, 114.86 25.78, 137.06 -0.1 M69.88 83.27 C90.82 60.85, 111.45 37.68, 142.05 0.26 M69.88 83.27 C96.12 52, 123.22 20.02, 142.05 0.26 M75.53 82.88 C104.14 50.25, 131.07 20.16, 147.69 -0.14 M75.53 82.88 C102.24 53.7, 126.35 23.44, 147.69 -0.14 M80.51 83.24 C110.41 51.62, 140.67 15.72, 152.68 0.22 M80.51 83.24 C108.79 50.88, 134.25 20.92, 152.68 0.22 M86.16 82.84 C105.35 58.43, 126.98 35.22, 158.32 -0.17 M86.16 82.84 C109.13 56.44, 133.79 29.5, 158.32 -0.17 M91.14 83.2 C115.95 52.84, 145.89 22.16, 163.31 0.19 M91.14 83.2 C117.28 53.58, 143.74 23.48, 163.31 0.19 M96.79 82.81 C113.75 64.65, 132.18 43.66, 168.95 -0.21 M96.79 82.81 C123.65 52, 149.24 21.6, 168.95 -0.21 M101.77 83.17 C127.44 55.55, 150.82 26.23, 173.94 0.15 M101.77 83.17 C117.02 64.49, 132.33 48.43, 173.94 0.15 M107.42 82.78 C123.73 63.11, 143.01 41.53, 179.58 -0.24 M107.42 82.78 C135.88 50.61, 162.61 19.61, 179.58 -0.24 M112.4 83.14 C134.04 60.36, 151.61 37.55, 184.57 0.12 M112.4 83.14 C131.46 60.17, 150.42 40.02, 184.57 0.12 M118.05 82.74 C144.96 50.28, 172.06 21.06, 190.21 -0.28 M118.05 82.74 C144.78 50.67, 174.76 17.93, 190.21 -0.28 M123.03 83.1 C143.58 60.2, 167.33 31.76, 195.2 0.08 M123.03 83.1 C145.22 58.56, 167.11 32.27, 195.2 0.08 M128.02 83.46 C157.09 51.33, 182.28 22.1, 200.84 -0.31 M128.02 83.46 C157 51.21, 186.14 18.14, 200.84 -0.31 M133.66 83.07 C162.72 52.08, 186.98 19.68, 205.17 0.8 M133.66 83.07 C160.99 51.73, 186.59 21.61, 205.17 0.8 M138.65 83.43 C161.06 58.62, 183.92 30.64, 209.5 1.92 M138.65 83.43 C161.15 56.26, 185.3 29.4, 209.5 1.92 M144.29 83.03 C160.83 64, 177.82 45.78, 213.18 3.79 M144.29 83.03 C168.63 54.47, 194.41 26.63, 213.18 3.79 M149.28 83.39 C173.94 54.34, 201.5 23.2, 216.2 6.41 M149.28 83.39 C166.61 61.64, 185.38 40.89, 216.2 6.41 M154.92 83 C167.15 68.15, 179.98 51.18, 219.22 9.04 M154.92 83 C168.27 67.38, 182.79 52.48, 219.22 9.04 M159.91 83.36 C175.39 67.85, 189.89 52.78, 220.92 13.17 M159.91 83.36 C177.95 62.33, 197.23 41.13, 220.92 13.17 M165.55 82.96 C177.23 66.21, 192.28 54.63, 222.63 17.3 M165.55 82.96 C184.68 60.8, 203.96 38.5, 222.63 17.3 M170.54 83.32 C189.23 58.67, 210.66 35.54, 222.37 23.7 M170.54 83.32 C192.05 58.93, 212.23 34.77, 222.37 23.7 M176.18 82.93 C187.34 71.75, 196.95 59.97, 222.76 29.34 M176.18 82.93 C193.47 63.92, 211.07 44.06, 222.76 29.34 M181.17 83.29 C196.33 66.27, 210.86 49.04, 222.5 35.74 M181.17 83.29 C195.14 69.16, 208.03 52.15, 222.5 35.74 M186.81 82.89 C201.43 69.67, 212.48 52.16, 222.9 41.38 M186.81 82.89 C194.74 73.98, 202.03 64.85, 222.9 41.38 M191.8 83.25 C200.22 73.77, 205.49 66.62, 222.64 47.78 M191.8 83.25 C203.72 69.71, 214.89 56.14, 222.64 47.78 M197.44 82.86 C205.24 76.26, 212.86 64.31, 223.03 53.43 M197.44 82.86 C203.77 76.28, 209.81 68.54, 223.03 53.43 M202.43 83.22 C208.96 78.23, 215.1 71.36, 221.46 61.33 M202.43 83.22 C205.77 79.04, 210.86 73.11, 221.46 61.33 M209.39 81.32 C215.18 77.33, 219.77 71.34, 220.54 68.49 M209.39 81.32 C213.19 78.03, 215.45 73.85, 220.54 68.49" stroke="#868e96" stroke-width="0.5" fill="none"></path><path d="M20.35 0 M20.35 0 C72.98 1.43, 124.17 0.18, 200.44 0 M20.35 0 C66.68 -0.96, 113.15 -1.49, 200.44 0 M200.44 0 C215.2 -1.4, 221.79 7.15, 220.79 20.35 M200.44 0 C212.81 -2.26, 219.82 8.19, 220.79 20.35 M220.79 20.35 C220.1 36.84, 220.14 51.01, 220.79 61.04 M220.79 20.35 C220.34 31.5, 220.4 41.02, 220.79 61.04 M220.79 61.04 C221.82 75.64, 212.33 80.32, 200.44 81.38 M220.79 61.04 C223.06 75.02, 214.3 82.01, 200.44 81.38 M200.44 81.38 C157.46 83.74, 109.4 83.26, 20.35 81.38 M200.44 81.38 C140.28 82.7, 78.36 81.31, 20.35 81.38 M20.35 81.38 C6.39 81.07, -1.25 75.67, 0 61.04 M20.35 81.38 C4.85 83.27, 2.24 75.89, 0 61.04 M0 61.04 C-2.03 49.79, -0.55 36.69, 0 20.35 M0 61.04 C0.71 49.09, -0.11 39.74, 0 20.35 M0 20.35 C0.93 6.51, 5.82 -1.55, 20.35 0 M0 20.35 C-0.05 6.42, 8.8 -1.71, 20.35 0" stroke="#0b7285" stroke-width="1" fill="none"></path></g><g transform="translate(79.89388020833326 28.64713541666673) rotate(0 40.5 23)"><text x="40.5" y="32" font-family="Virgil, Segoe UI Emoji" font-size="36px" fill="#0b7285" text-anchor="middle" style="white-space: pre;" direction="ltr">User</text></g><g stroke-linecap="round" transform="translate(709.2610677083334 10) rotate(0 110.39388020833326 51)"><path d="M6.13 6.66 C6.13 6.66, 6.13 6.66, 6.13 6.66 M6.13 6.66 C6.13 6.66, 6.13 6.66, 6.13 6.66 M3.25 16.07 C6.39 12.35, 9.28 11.55, 15.05 2.49 M3.25 16.07 C7.05 13.03, 9.92 9.78, 15.05 2.49 M3.64 21.71 C8.22 16.41, 11.9 12.66, 21.35 1.34 M3.64 21.71 C6.87 17.21, 10.36 12.51, 21.35 1.34 M3.38 28.11 C11.18 16.27, 20.71 4.6, 27 0.94 M3.38 28.11 C9.88 21.59, 15.76 13.36, 27 0.94 M3.12 34.51 C13.94 25.7, 21.48 13.54, 31.98 1.3 M3.12 34.51 C12.51 24.64, 19.77 15.45, 31.98 1.3 M3.51 40.15 C13.62 31.88, 21.78 19.41, 37.63 0.91 M3.51 40.15 C14.74 26.85, 26.21 15.89, 37.63 0.91 M3.25 46.55 C14.53 32.94, 29.36 18.23, 42.61 1.27 M3.25 46.55 C16.91 29.98, 29.79 15.51, 42.61 1.27 M3.65 52.19 C13.82 41.02, 27.06 25.53, 48.26 0.87 M3.65 52.19 C16.65 37.89, 28.76 22.83, 48.26 0.87 M3.38 58.59 C14.86 44.61, 26.27 30.97, 53.24 1.23 M3.38 58.59 C18.25 40, 33.39 23.56, 53.24 1.23 M3.12 64.99 C22.13 40.83, 39.23 18.85, 58.89 0.84 M3.12 64.99 C23.98 40.34, 45.89 14.3, 58.89 0.84 M3.52 70.63 C22.31 47.9, 45 23.12, 63.87 1.2 M3.52 70.63 C24.04 46.29, 44.46 23.75, 63.87 1.2 M3.26 77.03 C17.06 59.44, 29.06 45.7, 69.52 0.81 M3.26 77.03 C19 58.33, 35.88 40.08, 69.52 0.81 M2.34 84.18 C22.3 63.06, 38.06 38.33, 74.5 1.17 M2.34 84.18 C26.58 56.17, 50.63 29.51, 74.5 1.17 M4.04 88.32 C34.58 54.21, 61.69 20.4, 80.15 0.77 M4.04 88.32 C33.37 52.95, 63.72 19.04, 80.15 0.77 M5.1 93.21 C23.78 69.79, 43.04 49.32, 85.13 1.13 M5.1 93.21 C32.45 61.08, 60.75 29.54, 85.13 1.13 M8.11 95.83 C34.67 62.41, 66.55 32.05, 90.12 1.49 M8.11 95.83 C36.94 63.31, 64.31 30.83, 90.12 1.49 M10.48 99.21 C37.07 68.64, 61.39 40.38, 95.76 1.1 M10.48 99.21 C42.3 65.31, 71.47 30.87, 95.76 1.1 M14.81 100.32 C37.5 76.16, 55.44 51.15, 100.75 1.46 M14.81 100.32 C44.3 67.11, 72.57 32.21, 100.75 1.46 M19.79 100.68 C45.32 71.59, 70.19 47.27, 106.39 1.06 M19.79 100.68 C49.75 63.61, 82.02 28.87, 106.39 1.06 M24.13 101.8 C53.81 70, 80.44 35.15, 111.38 1.42 M24.13 101.8 C57.1 62.12, 91.48 23.72, 111.38 1.42 M27.8 103.67 C64.34 66.11, 96.76 26.33, 117.02 1.03 M27.8 103.67 C48.05 82.69, 65.72 60.12, 117.02 1.03 M32.79 104.03 C65.56 69.92, 96.71 31.43, 122.01 1.39 M32.79 104.03 C56.01 77.69, 79.11 52.57, 122.01 1.39 M38.43 103.63 C62.91 76.16, 83.75 52.39, 127.65 0.99 M38.43 103.63 C59.87 78.34, 81.5 54.43, 127.65 0.99 M43.42 103.99 C74.36 71.5, 104.37 36.12, 132.64 1.35 M43.42 103.99 C65.21 79.38, 86.79 53.43, 132.64 1.35 M49.06 103.6 C73.71 76.17, 100.54 44.96, 138.29 0.96 M49.06 103.6 C83.79 62.57, 118.56 23.72, 138.29 0.96 M54.05 103.96 C74.55 80.73, 98.85 54.32, 143.27 1.32 M54.05 103.96 C75.55 80.73, 95.54 57.57, 143.27 1.32 M59.69 103.56 C84.95 71.78, 111.51 43.5, 148.92 0.92 M59.69 103.56 C84.05 74.42, 108.94 44.66, 148.92 0.92 M64.68 103.92 C92.6 70.97, 119.58 42.75, 153.9 1.28 M64.68 103.92 C85.55 81.05, 106.01 58.16, 153.9 1.28 M70.32 103.53 C100.1 71.05, 127.85 39.72, 159.55 0.89 M70.32 103.53 C106.08 62.77, 140.97 21.16, 159.55 0.89 M75.31 103.89 C96.73 77.6, 120.83 49.79, 164.53 1.25 M75.31 103.89 C94.68 81.69, 114.57 60.29, 164.53 1.25 M80.95 103.5 C113.68 69.46, 141.54 31.01, 170.18 0.85 M80.95 103.5 C103.77 77.97, 125.93 50.8, 170.18 0.85 M85.94 103.86 C115.96 68.74, 143.98 35.6, 175.16 1.21 M85.94 103.86 C112.94 72.73, 140.83 40.99, 175.16 1.21 M90.93 104.22 C125.12 65.91, 155.39 28.27, 180.81 0.82 M90.93 104.22 C111.63 81.01, 131.02 57.07, 180.81 0.82 M96.57 103.82 C117.04 76.35, 141.29 53.77, 185.79 1.18 M96.57 103.82 C131.46 63.49, 166.45 22.92, 185.79 1.18 M101.56 104.18 C118.46 82.35, 139.92 57.25, 191.44 0.79 M101.56 104.18 C133.88 67.36, 164.81 30.94, 191.44 0.79 M107.2 103.79 C129.55 77.14, 150.16 53.66, 196.42 1.15 M107.2 103.79 C134.13 74.29, 160.71 43.54, 196.42 1.15 M112.19 104.15 C135.23 75.56, 159.08 46.44, 200.75 2.26 M112.19 104.15 C140.52 73.56, 167.49 41.35, 200.75 2.26 M117.83 103.75 C137.98 81.44, 161.39 55.91, 205.08 3.38 M117.83 103.75 C136.87 83.21, 154.99 61.27, 205.08 3.38 M122.82 104.11 C153.22 70.63, 181.2 36.59, 210.07 3.74 M122.82 104.11 C142.75 82.75, 163.02 58.98, 210.07 3.74 M128.46 103.72 C149.04 80.73, 171.53 53.35, 213.75 5.61 M128.46 103.72 C151.08 77, 173.6 52.35, 213.75 5.61 M133.45 104.08 C151.46 83.57, 165.5 65.84, 216.11 8.98 M133.45 104.08 C159.43 74.4, 184.56 44.97, 216.11 8.98 M139.09 103.68 C170.13 65.51, 201.98 32.71, 219.13 11.61 M139.09 103.68 C165.67 70.86, 193.75 39.57, 219.13 11.61 M144.08 104.04 C164.84 80.25, 181.32 60.01, 220.83 15.74 M144.08 104.04 C173.07 69.87, 202.52 35.08, 220.83 15.74 M149.72 103.65 C169.73 79.17, 189.96 56.83, 221.89 20.63 M149.72 103.65 C172.84 78.13, 195.7 52.34, 221.89 20.63 M154.71 104.01 C172.45 81.27, 191.32 62.53, 221.62 27.03 M154.71 104.01 C180.06 75.9, 203.68 47.21, 221.62 27.03 M160.35 103.61 C171.97 89.26, 187.32 73.09, 222.02 32.67 M160.35 103.61 C182.58 78.04, 204.11 53.15, 222.02 32.67 M165.34 103.97 C180.96 84.93, 195.28 70.04, 221.76 39.07 M165.34 103.97 C187.96 78.09, 210.03 54.92, 221.76 39.07 M170.98 103.58 C183.08 90.1, 195.67 76.02, 222.15 44.71 M170.98 103.58 C182.41 89.85, 194.64 77.54, 222.15 44.71 M175.97 103.94 C192.87 81.94, 212.16 62.8, 221.89 51.11 M175.97 103.94 C187.83 91.38, 199.25 76.29, 221.89 51.11 M181.61 103.54 C198.7 83.36, 214.65 66.43, 222.28 56.75 M181.61 103.54 C191.12 93.8, 199.26 82.11, 222.28 56.75 M186.6 103.9 C194.21 93.49, 201.36 83.04, 222.02 63.15 M186.6 103.9 C194.22 94.55, 201.65 86.51, 222.02 63.15 M192.24 103.51 C202.74 92.71, 210.65 79.62, 222.42 68.79 M192.24 103.51 C198.7 96.62, 205.94 89.14, 222.42 68.79 M197.23 103.87 C206.43 94.35, 213.85 84.1, 220.84 76.7 M197.23 103.87 C201.77 99.22, 207.01 93.19, 220.84 76.7 M204.18 101.97 C207.43 98.36, 213.34 92.06, 219.27 84.61 M204.18 101.97 C207.67 99.03, 210.27 94.59, 219.27 84.61" stroke="#868e96" stroke-width="0.5" fill="none"></path><path d="M25.5 0 M25.5 0 C83.75 1.83, 145.31 -0.14, 195.29 0 M25.5 0 C85.66 -0.36, 145.74 -0.44, 195.29 0 M195.29 0 C213.81 0.72, 221.91 10.07, 220.79 25.5 M195.29 0 C213.79 -1.98, 222.7 9.52, 220.79 25.5 M220.79 25.5 C219.45 44.87, 219.24 62.85, 220.79 76.5 M220.79 25.5 C219.73 42.75, 221.29 61.26, 220.79 76.5 M220.79 76.5 C221.96 92.97, 210.74 102.98, 195.29 102 M220.79 76.5 C219.82 94.21, 214.02 103.91, 195.29 102 M195.29 102 C140.87 99.48, 89.87 100.55, 25.5 102 M195.29 102 C135.3 101.64, 77.59 101.15, 25.5 102 M25.5 102 C9.03 101.46, -0.12 94.86, 0 76.5 M25.5 102 C10.28 101.52, 1.67 95.19, 0 76.5 M0 76.5 C-1.12 57.64, -0.2 40.18, 0 25.5 M0 76.5 C0.21 64.02, 0.24 50.9, 0 25.5 M0 25.5 C1.11 7.65, 7.59 -1.68, 25.5 0 M0 25.5 C0.8 7.93, 6.96 1.22, 25.5 0" stroke="#0b7285" stroke-width="1" fill="none"></path></g><g transform="translate(741.6549479166666 15) rotate(0 78 46)"><text x="78" y="32" font-family="Virgil, Segoe UI Emoji" font-size="36px" fill="#0b7285" text-anchor="middle" style="white-space: pre;" direction="ltr">API </text><text x="78" y="78" font-family="Virgil, Segoe UI Emoji" font-size="36px" fill="#0b7285" text-anchor="middle" style="white-space: pre;" direction="ltr">Gateway</text></g><g stroke-linecap="round"><g transform="translate(807.9490173288917 116.07712081442597) rotate(0 -2.1402350313885563 387.8233562335713)"><path d="M0.74 1.09 C0.21 130.12, -3.32 644.81, -4.35 773.7 M-0.34 0.61 C-0.87 129.86, -4 646.42, -5.02 775.04" stroke="#0b7285" stroke-width="1" fill="none"></path></g></g><mask></mask><g stroke-linecap="round" transform="translate(1176.9563802083335 11.807431450045272) rotate(0 110.39388020833326 51)"><path d="M6.13 6.66 C6.13 6.66, 6.13 6.66, 6.13 6.66 M6.13 6.66 C6.13 6.66, 6.13 6.66, 6.13 6.66 M3.25 16.07 C7.67 11.8, 10.07 7.34, 15.05 2.49 M3.25 16.07 C6.91 11.44, 11.34 7.16, 15.05 2.49 M3.64 21.71 C8.88 12.33, 16.2 4.14, 21.35 1.34 M3.64 21.71 C10.64 14.44, 17.17 5.95, 21.35 1.34 M3.38 28.11 C9.5 19.67, 16.36 14.79, 27 0.94 M3.38 28.11 C12.09 18.32, 20.84 7.52, 27 0.94 M3.12 34.51 C13.55 23.13, 21.78 10.72, 31.98 1.3 M3.12 34.51 C13.29 23.26, 22.73 11.68, 31.98 1.3 M3.51 40.15 C16.88 25.72, 29.62 11.78, 37.63 0.91 M3.51 40.15 C12.47 29.36, 21.55 19.38, 37.63 0.91 M3.25 46.55 C17.24 28.69, 30.8 13.08, 42.61 1.27 M3.25 46.55 C16.67 32.13, 29.98 17.28, 42.61 1.27 M3.65 52.19 C14.42 42.5, 20.46 31.67, 48.26 0.87 M3.65 52.19 C17.62 36.07, 33.12 18.57, 48.26 0.87 M3.38 58.59 C18.7 41.79, 30.98 24.59, 53.24 1.23 M3.38 58.59 C14.15 45.69, 25.18 32.69, 53.24 1.23 M3.12 64.99 C21.24 44.21, 40.89 20.68, 58.89 0.84 M3.12 64.99 C16.35 49, 31.31 33.99, 58.89 0.84 M3.52 70.63 C21.58 48.03, 44.07 23.37, 63.87 1.2 M3.52 70.63 C21.8 50.26, 39.64 30.89, 63.87 1.2 M3.26 77.03 C23.48 50.8, 48.28 26.93, 69.52 0.81 M3.26 77.03 C28.4 49.44, 52.71 21.35, 69.52 0.81 M2.34 84.18 C20.26 61.47, 41.27 41.42, 74.5 1.17 M2.34 84.18 C21.1 62.92, 39.84 41.63, 74.5 1.17 M4.04 88.32 C27.42 63.25, 50.51 33.6, 80.15 0.77 M4.04 88.32 C32.63 55.23, 61.36 21.5, 80.15 0.77 M5.1 93.21 C21.43 71.79, 39.42 49.5, 85.13 1.13 M5.1 93.21 C35.51 56.79, 66.83 21.98, 85.13 1.13 M8.11 95.83 C34.84 64.09, 60.77 31.61, 90.12 1.49 M8.11 95.83 C25.53 76.34, 42.64 55.01, 90.12 1.49 M10.48 99.21 C31.81 74.73, 52.68 51.87, 95.76 1.1 M10.48 99.21 C43.62 62.29, 75 25.33, 95.76 1.1 M14.81 100.32 C37.29 75.51, 57.84 54.46, 100.75 1.46 M14.81 100.32 C45.36 64.78, 75.92 28.22, 100.75 1.46 M19.79 100.68 C36.8 80.45, 57.91 57.28, 106.39 1.06 M19.79 100.68 C45.2 73.14, 69.2 44.04, 106.39 1.06 M24.13 101.8 C42.11 79.28, 62.51 60.77, 111.38 1.42 M24.13 101.8 C52.88 69.3, 81.19 36.61, 111.38 1.42 M27.8 103.67 C51.96 80.59, 74.86 51.81, 117.02 1.03 M27.8 103.67 C44.79 81.48, 64.23 59.87, 117.02 1.03 M32.79 104.03 C68.6 65.34, 99.89 25.19, 122.01 1.39 M32.79 104.03 C50.36 82.6, 68.79 61.22, 122.01 1.39 M38.43 103.63 C69.24 69.31, 99.09 34.86, 127.65 0.99 M38.43 103.63 C73.85 64.22, 107.56 24.58, 127.65 0.99 M43.42 103.99 C61.48 82.86, 83.04 60.06, 132.64 1.35 M43.42 103.99 C69.97 74, 94.92 45.26, 132.64 1.35 M49.06 103.6 C76.41 70.98, 104.08 39.67, 138.29 0.96 M49.06 103.6 C78.83 69.26, 109.3 34.53, 138.29 0.96 M54.05 103.96 C85.67 64.71, 119.01 27.97, 143.27 1.32 M54.05 103.96 C79.74 75.71, 104.16 46.16, 143.27 1.32 M59.69 103.56 C81.67 77.73, 107.83 51.89, 148.92 0.92 M59.69 103.56 C83.49 73.85, 109.35 45.65, 148.92 0.92 M64.68 103.92 C85.38 81.4, 104.44 59.69, 153.9 1.28 M64.68 103.92 C89.59 76.38, 114.77 46.78, 153.9 1.28 M70.32 103.53 C99.96 68.88, 129.76 36.93, 159.55 0.89 M70.32 103.53 C99.2 70.78, 127.01 37.08, 159.55 0.89 M75.31 103.89 C102.63 70.36, 134.71 36.48, 164.53 1.25 M75.31 103.89 C105.98 69.85, 136.27 34.49, 164.53 1.25 M80.95 103.5 C107.27 70.09, 137.43 40.13, 170.18 0.85 M80.95 103.5 C103.29 76.78, 127.47 49.93, 170.18 0.85 M85.94 103.86 C120.8 64.29, 152.96 23.84, 175.16 1.21 M85.94 103.86 C120.42 64.36, 152.1 24.92, 175.16 1.21 M90.93 104.22 C113.73 77.82, 137.29 49.45, 180.81 0.82 M90.93 104.22 C110.18 80.29, 130.7 57.44, 180.81 0.82 M96.57 103.82 C118 78.35, 136.75 55.99, 185.79 1.18 M96.57 103.82 C119.04 76.68, 141.03 51.56, 185.79 1.18 M101.56 104.18 C127.45 76.14, 152 45.59, 191.44 0.79 M101.56 104.18 C121.59 80.96, 139.26 60.16, 191.44 0.79 M107.2 103.79 C130.62 73.92, 157.23 46.63, 196.42 1.15 M107.2 103.79 C128.38 78.43, 150.7 52.96, 196.42 1.15 M112.19 104.15 C139.68 71, 168.32 36.13, 200.75 2.26 M112.19 104.15 C140.92 73.64, 169.19 40.71, 200.75 2.26 M117.83 103.75 C141.73 77.59, 168.02 47.66, 205.08 3.38 M117.83 103.75 C139.63 80.21, 159.92 57.63, 205.08 3.38 M122.82 104.11 C157.5 63.48, 192.1 23.73, 210.07 3.74 M122.82 104.11 C152.66 70.67, 181.98 36.88, 210.07 3.74 M128.46 103.72 C161.68 69.81, 192.29 33.69, 213.75 5.61 M128.46 103.72 C153.17 76.01, 175.98 47.4, 213.75 5.61 M133.45 104.08 C163.78 68.45, 192.78 35.18, 216.11 8.98 M133.45 104.08 C163.42 69.9, 193.32 34.12, 216.11 8.98 M139.09 103.68 C168.79 69.48, 196.17 38.28, 219.13 11.61 M139.09 103.68 C161.46 79.12, 184.4 54.11, 219.13 11.61 M144.08 104.04 C171.37 72.7, 196.06 47.26, 220.83 15.74 M144.08 104.04 C175.22 69.06, 205.73 33.44, 220.83 15.74 M149.72 103.65 C171.82 78.47, 193.58 50.24, 221.89 20.63 M149.72 103.65 C168.48 82.92, 187.5 61.63, 221.89 20.63 M154.71 104.01 C173.53 83.7, 191.99 63.59, 221.62 27.03 M154.71 104.01 C176.59 79.1, 196.79 53.81, 221.62 27.03 M160.35 103.61 C183.95 78.18, 206.61 48.77, 222.02 32.67 M160.35 103.61 C179.05 82.67, 197.48 63, 222.02 32.67 M165.34 103.97 C175.69 90.63, 191.02 76.33, 221.76 39.07 M165.34 103.97 C183.04 83.51, 201.92 62.34, 221.76 39.07 M170.98 103.58 C184.45 86.34, 200.41 68.75, 222.15 44.71 M170.98 103.58 C183.37 88.65, 196.54 75.49, 222.15 44.71 M175.97 103.94 C186.49 93.26, 197.37 81.64, 221.89 51.11 M175.97 103.94 C188.19 89.95, 201.03 75.22, 221.89 51.11 M181.61 103.54 C194.37 91.43, 205.14 75.59, 222.28 56.75 M181.61 103.54 C197.32 86.92, 212.95 68.6, 222.28 56.75 M186.6 103.9 C195.39 95.15, 201.51 87.25, 222.02 63.15 M186.6 103.9 C199.78 89.64, 212.45 75.73, 222.02 63.15 M192.24 103.51 C200.34 95.43, 209.48 87.05, 222.42 68.79 M192.24 103.51 C202.8 93.11, 211.07 81.6, 222.42 68.79 M197.23 103.87 C203.79 97.81, 208.01 92.1, 220.84 76.7 M197.23 103.87 C203.85 97.77, 209.4 89.5, 220.84 76.7 M204.18 101.97 C208.72 96.91, 212.45 88.93, 219.27 84.61 M204.18 101.97 C209.68 96.07, 215.07 89.47, 219.27 84.61" stroke="#868e96" stroke-width="0.5" fill="none"></path><path d="M25.5 0 M25.5 0 C93.23 -0.69, 157.67 1.81, 195.29 0 M25.5 0 C83.03 -0.81, 140.2 -0.33, 195.29 0 M195.29 0 C211.7 -1.67, 220.71 7.18, 220.79 25.5 M195.29 0 C213.12 -0.24, 221.56 7.94, 220.79 25.5 M220.79 25.5 C218.93 40.11, 222.06 56.56, 220.79 76.5 M220.79 25.5 C220.7 39.22, 219.72 54.02, 220.79 76.5 M220.79 76.5 C221.39 93.32, 211.32 100.21, 195.29 102 M220.79 76.5 C221.7 95.77, 213.55 101.74, 195.29 102 M195.29 102 C131.96 102.84, 71.73 101.49, 25.5 102 M195.29 102 C150.04 103.24, 104.53 104.11, 25.5 102 M25.5 102 C7.66 100.14, -0.34 93.38, 0 76.5 M25.5 102 C9.44 100.13, 1.24 93.79, 0 76.5 M0 76.5 C-1.2 55.34, -1.33 37.31, 0 25.5 M0 76.5 C-0.09 58.72, -0.36 42.01, 0 25.5 M0 25.5 C0.85 8.58, 7.34 0.91, 25.5 0 M0 25.5 C0.83 7.38, 7.41 -2.13, 25.5 0" stroke="#0b7285" stroke-width="1" fill="none"></path></g><g transform="translate(1232.3502604166665 39.80743145004527) rotate(0 55 23)"><text x="55" y="32" font-family="Virgil, Segoe UI Emoji" font-size="36px" fill="#0b7285" text-anchor="middle" style="white-space: pre;" direction="ltr">Trade</text></g><g stroke-linecap="round"><g transform="translate(1275.6443298288918 120.88455226447121) rotate(0 -2.2257788079481315 386.8676198738316)"><path d="M1.17 -0.9 C0.04 128.3, -4.79 645.31, -5.62 774.64 M0.33 1.24 C-0.52 130.13, -2.58 644.13, -3.31 772.8" stroke="#0b7285" stroke-width="1" fill="none"></path></g></g><mask></mask><g stroke-linecap="round" transform="translate(1507.067057291667 14.518368950045442) rotate(0 110.39388020833326 51)"><path d="M6.13 6.66 C6.13 6.66, 6.13 6.66, 6.13 6.66 M6.13 6.66 C6.13 6.66, 6.13 6.66, 6.13 6.66 M3.25 16.07 C7.2 10.19, 9.65 7.7, 15.05 2.49 M3.25 16.07 C7.74 10.46, 11.98 4.77, 15.05 2.49 M3.64 21.71 C9.08 12.77, 17.4 7.66, 21.35 1.34 M3.64 21.71 C9.86 16.32, 14.33 9.66, 21.35 1.34 M3.38 28.11 C10.11 19.82, 15.58 14.18, 27 0.94 M3.38 28.11 C10.92 19.09, 17.64 12.82, 27 0.94 M3.12 34.51 C13.15 23.54, 22.53 11.77, 31.98 1.3 M3.12 34.51 C12.12 26.26, 19.24 16.7, 31.98 1.3 M3.51 40.15 C12.07 31.47, 18.38 22.71, 37.63 0.91 M3.51 40.15 C16.43 26.16, 28.43 12.77, 37.63 0.91 M3.25 46.55 C13.68 31.88, 23.2 20.9, 42.61 1.27 M3.25 46.55 C13.92 33.55, 24.74 22.53, 42.61 1.27 M3.65 52.19 C14.61 41.21, 21.22 31.98, 48.26 0.87 M3.65 52.19 C16.1 38.28, 28.9 23.27, 48.26 0.87 M3.38 58.59 C19.62 37.81, 38.81 19.6, 53.24 1.23 M3.38 58.59 C21.38 36.31, 39.59 15.57, 53.24 1.23 M3.12 64.99 C21.34 43.94, 39.73 24.41, 58.89 0.84 M3.12 64.99 C21.35 46.2, 37.42 26.64, 58.89 0.84 M3.52 70.63 C24.97 44.68, 46.6 21.64, 63.87 1.2 M3.52 70.63 C18.45 51.71, 34.71 32.07, 63.87 1.2 M3.26 77.03 C22.88 54.81, 42.93 31.28, 69.52 0.81 M3.26 77.03 C23.95 52.51, 46.35 27.1, 69.52 0.81 M2.34 84.18 C20.6 63.89, 41.11 40.03, 74.5 1.17 M2.34 84.18 C18.71 62, 37.27 42.33, 74.5 1.17 M4.04 88.32 C29.46 58.24, 57.59 27.35, 80.15 0.77 M4.04 88.32 C31.21 55.63, 58.67 25.07, 80.15 0.77 M5.1 93.21 C37.46 56.89, 67.41 23.68, 85.13 1.13 M5.1 93.21 C35.08 57.9, 66.44 21.38, 85.13 1.13 M8.11 95.83 C34.28 65.94, 56.59 38.98, 90.12 1.49 M8.11 95.83 C33.28 64.91, 59.66 35.8, 90.12 1.49 M10.48 99.21 C38.38 64.54, 67.49 34.64, 95.76 1.1 M10.48 99.21 C43.03 60.07, 76.88 24.06, 95.76 1.1 M14.81 100.32 C36.83 74.52, 61.25 48.22, 100.75 1.46 M14.81 100.32 C48.68 62.7, 81.69 23.01, 100.75 1.46 M19.79 100.68 C50.19 70.02, 78.33 36.14, 106.39 1.06 M19.79 100.68 C45.82 71.75, 70.23 42.39, 106.39 1.06 M24.13 101.8 C43.39 79.34, 61.9 59.46, 111.38 1.42 M24.13 101.8 C49.22 71.41, 74.88 42.36, 111.38 1.42 M27.8 103.67 C57.41 69.07, 87.55 33.56, 117.02 1.03 M27.8 103.67 C46.97 81.22, 65.37 59.82, 117.02 1.03 M32.79 104.03 C62.14 71.61, 91.82 36.4, 122.01 1.39 M32.79 104.03 C51.71 81.43, 70.63 60.76, 122.01 1.39 M38.43 103.63 C62.91 77.19, 83.46 50.87, 127.65 0.99 M38.43 103.63 C73.55 64.43, 107.03 22.88, 127.65 0.99 M43.42 103.99 C67.12 75.64, 94.26 47.22, 132.64 1.35 M43.42 103.99 C64.11 78.79, 86.72 54.96, 132.64 1.35 M49.06 103.6 C79.66 67.58, 112.15 33, 138.29 0.96 M49.06 103.6 C77.16 71.48, 103.47 39.81, 138.29 0.96 M54.05 103.96 C88.94 65.67, 126.1 24.11, 143.27 1.32 M54.05 103.96 C88.58 65.8, 123.96 26.42, 143.27 1.32 M59.69 103.56 C81.66 78.6, 100.13 55.45, 148.92 0.92 M59.69 103.56 C79.15 80.81, 97.97 59.32, 148.92 0.92 M64.68 103.92 C84.92 79.35, 105.86 57.85, 153.9 1.28 M64.68 103.92 C92.59 70.88, 121.79 39.5, 153.9 1.28 M70.32 103.53 C97.14 73.47, 121.35 47.25, 159.55 0.89 M70.32 103.53 C105.77 62.72, 139.47 23.25, 159.55 0.89 M75.31 103.89 C110.48 64.69, 146.13 23.43, 164.53 1.25 M75.31 103.89 C94.99 80.21, 114.44 58.31, 164.53 1.25 M80.95 103.5 C99.44 82.61, 119.17 57.04, 170.18 0.85 M80.95 103.5 C106.52 74.59, 131.46 44.01, 170.18 0.85 M85.94 103.86 C120.57 63.95, 154.68 25.84, 175.16 1.21 M85.94 103.86 C122.31 63.47, 157.39 23.51, 175.16 1.21 M90.93 104.22 C119.92 72.56, 146.5 38.58, 180.81 0.82 M90.93 104.22 C122.37 67.1, 153.13 31.69, 180.81 0.82 M96.57 103.82 C122.39 73.39, 151.85 39.02, 185.79 1.18 M96.57 103.82 C133.25 63.06, 168.61 21.66, 185.79 1.18 M101.56 104.18 C136.25 64.7, 172.14 20.96, 191.44 0.79 M101.56 104.18 C125.02 79.05, 146.92 52.84, 191.44 0.79 M107.2 103.79 C139.89 67.1, 169.42 31.29, 196.42 1.15 M107.2 103.79 C135.87 70.02, 162.73 37.97, 196.42 1.15 M112.19 104.15 C133.2 79.81, 157.85 55.47, 200.75 2.26 M112.19 104.15 C130.8 82.49, 150.79 60.25, 200.75 2.26 M117.83 103.75 C149.37 67.73, 181.89 29.97, 205.08 3.38 M117.83 103.75 C147.35 72.33, 174.52 38.36, 205.08 3.38 M122.82 104.11 C141.26 84.82, 159.43 63.64, 210.07 3.74 M122.82 104.11 C147.81 74.38, 175.38 43.53, 210.07 3.74 M128.46 103.72 C147.71 83.16, 165.08 61.8, 213.75 5.61 M128.46 103.72 C154.07 77.29, 177.35 48.54, 213.75 5.61 M133.45 104.08 C161.57 71.24, 188.79 37.79, 216.11 8.98 M133.45 104.08 C163.7 71, 192.51 36.77, 216.11 8.98 M139.09 103.68 C159.09 80.39, 181.36 59.83, 219.13 11.61 M139.09 103.68 C167.4 69.43, 196.33 37.08, 219.13 11.61 M144.08 104.04 C167.77 74.95, 196.03 46.41, 220.83 15.74 M144.08 104.04 C160.8 86.05, 175.27 68.4, 220.83 15.74 M149.72 103.65 C167.42 82.89, 188.59 60.77, 221.89 20.63 M149.72 103.65 C166.02 83.84, 181.37 65.62, 221.89 20.63 M154.71 104.01 C176.18 77.78, 201.87 49.08, 221.62 27.03 M154.71 104.01 C173.76 81.41, 193.33 58, 221.62 27.03 M160.35 103.61 C176.11 81.65, 195.34 62.43, 222.02 32.67 M160.35 103.61 C176.17 86.44, 189.95 70.31, 222.02 32.67 M165.34 103.97 C186.39 82.88, 201.99 61.76, 221.76 39.07 M165.34 103.97 C179.18 87.15, 194.89 69.81, 221.76 39.07 M170.98 103.58 C180.83 89.21, 195.91 76.01, 222.15 44.71 M170.98 103.58 C183.08 89.11, 196.27 75.46, 222.15 44.71 M175.97 103.94 C192.81 83.32, 213.21 62.78, 221.89 51.11 M175.97 103.94 C190.79 86.67, 205.77 68.66, 221.89 51.11 M181.61 103.54 C192.77 93.75, 200 82.34, 222.28 56.75 M181.61 103.54 C197.92 84.1, 214.62 67.01, 222.28 56.75 M186.6 103.9 C199.86 87.9, 215.13 71.38, 222.02 63.15 M186.6 103.9 C197.65 91.1, 210.06 77.82, 222.02 63.15 M192.24 103.51 C201.02 90.57, 214.41 79.86, 222.42 68.79 M192.24 103.51 C202.96 91.25, 213.74 78.36, 222.42 68.79 M197.23 103.87 C205.19 94.87, 212.16 87.26, 220.84 76.7 M197.23 103.87 C204.36 97.28, 210.21 89.63, 220.84 76.7 M204.18 101.97 C208.13 97.04, 216.61 88.51, 219.27 84.61 M204.18 101.97 C207.73 96.96, 211.89 91.79, 219.27 84.61" stroke="#868e96" stroke-width="0.5" fill="none"></path><path d="M25.5 0 M25.5 0 C81.61 -0.9, 142.23 -1.75, 195.29 0 M25.5 0 C90.97 0.64, 155.66 0.68, 195.29 0 M195.29 0 C210.93 1.96, 221.29 7.86, 220.79 25.5 M195.29 0 C214.53 -0.3, 222.08 10.33, 220.79 25.5 M220.79 25.5 C218.52 42.99, 221.09 61.89, 220.79 76.5 M220.79 25.5 C220.42 43.1, 221.19 59.74, 220.79 76.5 M220.79 76.5 C220.8 91.58, 212.22 102.47, 195.29 102 M220.79 76.5 C218.95 93.3, 212.62 103.28, 195.29 102 M195.29 102 C144.74 98.76, 95.44 101.52, 25.5 102 M195.29 102 C145.79 104.26, 97.59 103.18, 25.5 102 M25.5 102 C8.53 103.85, -0.04 94.67, 0 76.5 M25.5 102 C10.6 99.82, 0.1 92.56, 0 76.5 M0 76.5 C0.02 61.77, 1.59 48.18, 0 25.5 M0 76.5 C0.65 62.97, -0.42 50.57, 0 25.5 M0 25.5 C1.23 6.63, 10.27 -0.63, 25.5 0 M0 25.5 C-0.39 8.38, 10.63 -1.21, 25.5 0" stroke="#0b7285" stroke-width="1" fill="none"></path></g><g transform="translate(1544.9609375 42.51836895004544) rotate(0 72.5 23)"><text x="72.5" y="32" font-family="Virgil, Segoe UI Emoji" font-size="36px" fill="#0b7285" text-anchor="middle" style="white-space: pre;" direction="ltr">Payment</text></g><g stroke-linecap="round"><g transform="translate(1605.7550069122253 124.59548976447135) rotate(0 -2.9923055003506533 387.04765091038456)"><path d="M0.47 -0.55 C-0.4 128.46, -4.41 644.5, -5.29 773.45 M-0.74 1.77 C-1.8 130.99, -5.65 645.95, -6.46 774.65" stroke="#0b7285" stroke-width="1" fill="none"></path></g></g><mask></mask><g stroke-linecap="round"><g transform="translate(811.551620497551 277.06854945649866) rotate(0 223.432941077519 -0.46961342127623595)"><path d="M-0.9 0.76 C73.65 0.29, 372.95 -1.56, 447.77 -1.7 M0.83 0.12 C75.16 0.31, 372.29 -0.12, 446.7 -0.44" stroke="#0b7285" stroke-width="1" fill="none"></path></g><g transform="translate(811.551620497551 277.06854945649866) rotate(0 223.432941077519 -0.46961342127623595)"><path d="M419.8 9.51 C427.08 6.63, 439.37 3.06, 447.87 1.38 M418.13 10.18 C423.98 7.97, 429.33 6.63, 445.76 -0.91" stroke="#0b7285" stroke-width="1" fill="none"></path></g><g transform="translate(811.551620497551 277.06854945649866) rotate(0 223.432941077519 -0.46961342127623595)"><path d="M419.75 -11.01 C427.24 -6.94, 439.55 -3.56, 447.87 1.38 M418.07 -10.35 C423.95 -8.34, 429.31 -5.47, 445.76 -0.91" stroke="#0b7285" stroke-width="1" fill="none"></path></g></g><mask></mask><g transform="translate(916.7018229166669 245.7877604166667) rotate(0 125 12.5)"><text x="0" y="18" font-family="Virgil, Segoe UI Emoji" font-size="20px" fill="#0b7285" text-anchor="start" style="white-space: pre;" direction="ltr">dispatch after validation</text></g><g stroke-linecap="round"><g transform="translate(804.9544270833334 307.44140625) rotate(0 -342.19586214000975 0.14479278581355004)"><path d="M-0.88 -0.3 C-114.69 -0.09, -569.95 0.75, -683.51 0.56" stroke="#0b7285" stroke-width="1.5" fill="none" stroke-dasharray="8 9"></path></g><g transform="translate(804.9544270833334 307.44140625) rotate(0 -342.19586214000975 0.14479278581355004)"><path d="M-655.83 -10.89 C-660.84 -6.49, -671.13 -4.94, -685.16 -0.47" stroke="#0b7285" stroke-width="1.5" fill="none"></path></g><g transform="translate(804.9544270833334 307.44140625) rotate(0 -342.19586214000975 0.14479278581355004)"><path d="M-655.82 9.63 C-660.72 8.96, -671.01 5.45, -685.16 -0.47" stroke="#0b7285" stroke-width="1.5" fill="none"></path></g></g><mask></mask><g transform="translate(291.4518229166665 269.38802083333337) rotate(0 194.99999999999994 25)"><text x="0" y="18" font-family="Virgil, Segoe UI Emoji" font-size="20.010016025641015px" fill="#0b7285" text-anchor="start" style="white-space: pre;" direction="ltr">Invalid parameters (400 Bad Request)</text><text x="0" y="43" font-family="Virgil, Segoe UI Emoji" font-size="20.010016025641015px" fill="#0b7285" text-anchor="start" style="white-space: pre;" direction="ltr"></text></g><g stroke-linecap="round"><g transform="translate(1280.7816554285591 336.09580043262804) rotate(0 160.38855641020007 -1.2904270626604841)"><path d="M-0.47 -0.15 C52.84 -0.52, 265.57 -2.29, 318.94 -2.43 M1.48 -1.27 C55.26 -1.46, 268.33 -0.84, 321.25 -1.09" stroke="#0b7285" stroke-width="1" fill="none"></path></g><g transform="translate(1280.7816554285591 336.09580043262804) rotate(0 160.38855641020007 -1.2904270626604841)"><path d="M292.81 7.9 C298.71 7.04, 307.33 2.97, 322.7 -0.53 M292.89 8.21 C299.75 6.85, 304.85 5.35, 322.24 -0.32" stroke="#0b7285" stroke-width="1" fill="none"></path></g><g transform="translate(1280.7816554285591 336.09580043262804) rotate(0 160.38855641020007 -1.2904270626604841)"><path d="M292.8 -12.62 C298.67 -8.92, 307.29 -8.43, 322.7 -0.53 M292.88 -12.31 C299.59 -9.06, 304.68 -5.96, 322.24 -0.32" stroke="#0b7285" stroke-width="1" fill="none"></path></g></g><mask></mask><g transform="translate(1330.02734375 298.5546875) rotate(0 109 12.5)"><text x="0" y="18" font-family="Virgil, Segoe UI Emoji" font-size="20px" fill="#0b7285" text-anchor="start" style="white-space: pre;" direction="ltr">Check/Update balance</text></g><g stroke-linecap="round" transform="translate(795.2604166666664 233.49609375000003) rotate(0 13.69466145833303 37.864583333333314)"><path d="M1.82 1.58 C1.82 1.58, 1.82 1.58, 1.82 1.58 M1.82 1.58 C1.82 1.58, 1.82 1.58, 1.82 1.58 M1.56 7.98 C3.58 4.92, 6.02 3.28, 7.47 1.19 M1.56 7.98 C3.63 5.17, 5.5 3.04, 7.47 1.19 M1.3 14.38 C5.34 8.98, 9.26 7.69, 13.11 0.8 M1.3 14.38 C4.69 10.83, 8.46 7.4, 13.11 0.8 M1.69 20.02 C9.25 13.54, 16.39 6.33, 18.1 1.16 M1.69 20.02 C8.59 12.62, 12.77 5.44, 18.1 1.16 M1.43 26.42 C6.89 19.23, 15.14 11.67, 23.74 0.76 M1.43 26.42 C8.71 18.76, 16.9 8.48, 23.74 0.76 M1.83 32.06 C9.88 23.5, 18.75 12.08, 26.76 3.38 M1.83 32.06 C7.02 25.71, 13.54 19.74, 26.76 3.38 M1.57 38.46 C10.09 27.76, 22.42 17.39, 29.78 6.01 M1.57 38.46 C11.56 27.65, 21.86 14.57, 29.78 6.01 M1.96 44.1 C10.2 32.46, 22.19 19.53, 29.52 12.41 M1.96 44.1 C11.49 31.62, 21.76 20.13, 29.52 12.41 M1.7 50.5 C6.21 44.1, 13.8 37.01, 29.91 18.05 M1.7 50.5 C8.86 43.32, 13.26 35.85, 29.91 18.05 M2.09 56.15 C13.89 44.41, 22 33.73, 29.65 24.45 M2.09 56.15 C7.73 48.37, 15.16 40.42, 29.65 24.45 M1.83 62.54 C10.45 56.38, 13.86 48.07, 30.04 30.09 M1.83 62.54 C7.6 55.56, 14.95 47.21, 30.04 30.09 M1.57 68.94 C10.25 57.89, 20.9 47.9, 29.78 36.49 M1.57 68.94 C8.1 61.29, 14.96 52.93, 29.78 36.49 M2.62 73.83 C9.3 68.47, 15.22 61.65, 30.18 42.13 M2.62 73.83 C11.02 66.06, 17.6 57.33, 30.18 42.13 M5.64 76.45 C14.43 65.66, 21.16 56.45, 29.91 48.53 M5.64 76.45 C10.99 69.41, 16.83 64.09, 29.91 48.53 M10.63 76.81 C16.28 73.15, 17.26 69.16, 29.65 54.93 M10.63 76.81 C15.14 70.3, 22.53 64.66, 29.65 54.93 M16.27 76.42 C19.31 71.17, 24.85 66.37, 30.05 60.57 M16.27 76.42 C18.72 72.7, 21.94 70.68, 30.05 60.57 M21.26 76.78 C23.68 74.21, 25.64 72.6, 27.82 69.23 M21.26 76.78 C23.73 74.66, 25.51 71.82, 27.82 69.23" stroke="#868e96" stroke-width="0.5" fill="none"></path><path d="M6.85 0 M6.85 0 C10.52 1.45, 11.97 -0.85, 20.54 0 M20.54 0 C26.85 -0.61, 26.81 1.5, 27.39 6.85 M27.39 6.85 C28.03 31.4, 27.16 55.87, 27.39 68.88 M27.39 68.88 C27.66 75.39, 23.75 75.51, 20.54 75.73 M20.54 75.73 C16.59 76.94, 12.74 75.01, 6.85 75.73 M6.85 75.73 C2.58 74.98, -0.01 71.51, 0 68.88 M0 68.88 C0.45 52.46, 1.14 33, 0 6.85 M0 6.85 C-1.98 3.25, 1.86 0.05, 6.85 0" stroke="#0b7285" stroke-width="1.5" fill="none" stroke-dasharray="8 9"></path></g><g transform="translate(376.98307291666674 318.69841746794873) rotate(0 118.00000000000006 12.5)"><text x="0" y="18" font-family="Virgil, Segoe UI Emoji" font-size="20.010016025641015px" fill="#0b7285" text-anchor="start" style="white-space: pre;" direction="ltr">Order placed (200 OK!)</text></g><g stroke-linecap="round" transform="translate(1591.832682291667 344.01041666666674) rotate(0 13.69466145833303 37.864583333333314)"><path d="M1.82 1.58 C1.82 1.58, 1.82 1.58, 1.82 1.58 M1.82 1.58 C1.82 1.58, 1.82 1.58, 1.82 1.58 M1.56 7.98 C3.57 6.09, 6.23 3.43, 7.47 1.19 M1.56 7.98 C3.47 6.27, 5 3.98, 7.47 1.19 M1.3 14.38 C4.12 9.48, 5.59 9.64, 13.11 0.8 M1.3 14.38 C4.9 9.96, 7.69 7.05, 13.11 0.8 M1.69 20.02 C7.91 13.47, 15.15 5.36, 18.1 1.16 M1.69 20.02 C5.64 15.14, 10.23 10.61, 18.1 1.16 M1.43 26.42 C8.99 15.15, 17.93 7.02, 23.74 0.76 M1.43 26.42 C6.48 20.44, 13.05 13.15, 23.74 0.76 M1.83 32.06 C12.18 21.71, 20.85 9.94, 26.76 3.38 M1.83 32.06 C6.35 25.73, 12.29 19.41, 26.76 3.38 M1.57 38.46 C12.28 28.68, 19.9 16.22, 29.78 6.01 M1.57 38.46 C10.9 25.91, 22.31 15.05, 29.78 6.01 M1.96 44.1 C11.48 34.08, 19.8 23.27, 29.52 12.41 M1.96 44.1 C9.75 34.83, 16.32 27.8, 29.52 12.41 M1.7 50.5 C6.33 43.15, 13.4 36.48, 29.91 18.05 M1.7 50.5 C9.68 41.03, 17.95 29.98, 29.91 18.05 M2.09 56.15 C10.64 46.46, 18.18 39.24, 29.65 24.45 M2.09 56.15 C13.47 44.58, 24.26 31.52, 29.65 24.45 M1.83 62.54 C10.93 49.96, 23.46 39.43, 30.04 30.09 M1.83 62.54 C12.12 51.26, 20.39 41.22, 30.04 30.09 M1.57 68.94 C13.14 55.86, 20.21 44.79, 29.78 36.49 M1.57 68.94 C11.23 57.44, 21.48 46.68, 29.78 36.49 M2.62 73.83 C14.27 60.63, 21.54 50.97, 30.18 42.13 M2.62 73.83 C9.58 65.4, 16.8 56.83, 30.18 42.13 M5.64 76.45 C13.36 66.1, 20.82 55.86, 29.91 48.53 M5.64 76.45 C13.07 69.2, 18.77 60.16, 29.91 48.53 M10.63 76.81 C17.91 67.15, 23.77 59.61, 29.65 54.93 M10.63 76.81 C15.92 71.06, 20.14 65.2, 29.65 54.93 M16.27 76.42 C22.89 70.86, 25.54 63.22, 30.05 60.57 M16.27 76.42 C21.13 70.76, 27.1 63.7, 30.05 60.57 M21.26 76.78 C23.26 74.65, 25.51 72.04, 27.82 69.23 M21.26 76.78 C23.32 75.37, 24.05 73.37, 27.82 69.23" stroke="#868e96" stroke-width="0.5" fill="none"></path><path d="M6.85 0 M6.85 0 C11.42 -0.53, 15.18 0.47, 20.54 0 M20.54 0 C26.38 1.99, 29.34 3.56, 27.39 6.85 M27.39 6.85 C25.62 23.18, 27.43 36.41, 27.39 68.88 M27.39 68.88 C27.64 72.24, 25.7 75.07, 20.54 75.73 M20.54 75.73 C17.23 76.14, 15.52 76.99, 6.85 75.73 M6.85 75.73 C2.76 74, -1.26 72.23, 0 68.88 M0 68.88 C-0.16 51.17, -0.63 31.13, 0 6.85 M0 6.85 C1.24 1.75, 3.49 -1.65, 6.85 0" stroke="#0b7285" stroke-width="1.5" fill="none" stroke-dasharray="8 9"></path></g><g stroke-linecap="round"><g transform="translate(1273.1661310898003 423.84902081266057) rotate(0 160.42409457396252 -0.798945256057209)"><path d="M1.16 -0.7 C54.57 -1.25, 267.55 -2.88, 320.54 -3.14 M0.3 1.54 C53.63 1.09, 267.07 -1.75, 320.04 -2.18" stroke="#0b7285" stroke-width="1" fill="none"></path></g><g transform="translate(1273.1661310898003 423.84902081266057) rotate(0 160.42409457396252 -0.798945256057209)"><path d="M28.09 -9.79 C18.89 -8.65, 11.81 -5.94, 0.32 -0.19 M30.2 -10.89 C22.03 -7.72, 15.66 -5.08, 1.51 0.13" stroke="#0b7285" stroke-width="1" fill="none"></path></g><g transform="translate(1273.1661310898003 423.84902081266057) rotate(0 160.42409457396252 -0.798945256057209)"><path d="M28.26 10.73 C18.98 5.61, 11.85 2.07, 0.32 -0.19 M30.37 9.63 C22.12 7.49, 15.71 4.82, 1.51 0.13" stroke="#0b7285" stroke-width="1" fill="none"></path></g></g><mask></mask><g stroke-linecap="round" transform="translate(1264.3326822916674 289.1536458333335) rotate(0 14.176432291666288 57.71809895833334)"><path d="M1.89 1.64 C1.89 1.64, 1.89 1.64, 1.89 1.64 M1.89 1.64 C1.89 1.64, 1.89 1.64, 1.89 1.64 M1.63 8.04 C3.46 6.29, 5.21 3.37, 8.19 0.49 M1.63 8.04 C3.61 4.9, 6.44 2.75, 8.19 0.49 M1.36 14.44 C6.12 9.77, 9.56 8.01, 13.17 0.85 M1.36 14.44 C4.8 10.93, 6.47 8.06, 13.17 0.85 M1.1 20.83 C3.03 15.06, 10.79 13.48, 18.16 1.21 M1.1 20.83 C5.69 15.19, 9.23 10.34, 18.16 1.21 M1.5 26.48 C6.76 19.4, 15.28 12.27, 23.8 0.82 M1.5 26.48 C6.91 19.82, 12.32 12.4, 23.8 0.82 M1.24 32.87 C12.35 21.95, 20.64 10.46, 27.48 2.69 M1.24 32.87 C7.26 25.88, 12.45 20.48, 27.48 2.69 M1.63 38.52 C8.52 30.49, 11.58 24.01, 28.53 7.57 M1.63 38.52 C11.28 27.36, 20.69 17.09, 28.53 7.57 M1.37 44.92 C7.28 37.56, 16.36 28.43, 28.92 13.22 M1.37 44.92 C8.47 37.6, 13.14 31.57, 28.92 13.22 M1.11 51.31 C11.07 41.85, 19.18 28.63, 28.66 19.62 M1.11 51.31 C12.05 38.63, 23.24 27.56, 28.66 19.62 M1.5 56.96 C10.79 44.51, 18.11 35.77, 28.4 26.01 M1.5 56.96 C10.3 45.26, 19.27 34.85, 28.4 26.01 M1.24 63.35 C10.79 54.24, 19.02 43.91, 28.79 31.66 M1.24 63.35 C8.23 53.85, 15.62 45.6, 28.79 31.66 M1.63 69 C7.31 62.72, 15.82 56.5, 28.53 38.05 M1.63 69 C8.49 62.3, 14.59 54.95, 28.53 38.05 M1.37 75.39 C11.59 63.3, 21.12 51.24, 28.93 43.7 M1.37 75.39 C10.1 64.75, 20.92 52.39, 28.93 43.7 M1.11 81.79 C6.9 74.02, 13.12 66.36, 28.67 50.09 M1.11 81.79 C7.16 73.16, 15.07 66.44, 28.67 50.09 M1.51 87.44 C7.41 79.18, 13.68 71.83, 28.41 56.49 M1.51 87.44 C9.52 79.14, 17.07 70.9, 28.41 56.49 M1.25 93.83 C11.03 85.26, 16.2 75.97, 28.8 62.14 M1.25 93.83 C9.03 84.22, 15.72 75.94, 28.8 62.14 M1.64 99.48 C10.54 86.47, 23.61 74.25, 28.54 68.53 M1.64 99.48 C12.05 88.02, 22.33 75.7, 28.54 68.53 M1.38 105.87 C8.42 96.43, 14.1 90.48, 28.93 74.18 M1.38 105.87 C9.4 95.73, 18.93 86.25, 28.93 74.18 M1.12 112.27 C9.91 101.05, 22.44 90.21, 28.67 80.57 M1.12 112.27 C9.23 102.57, 18.51 90.88, 28.67 80.57 M4.14 114.9 C12.6 103.21, 20.56 92.74, 28.41 86.97 M4.14 114.9 C13.38 105.18, 22.44 94.1, 28.41 86.97 M9.12 115.26 C16.25 108.86, 20.2 102.68, 28.8 92.62 M9.12 115.26 C13.35 109.54, 18.15 104.48, 28.8 92.62 M14.11 115.62 C18.65 108.69, 23.65 106.83, 28.54 99.01 M14.11 115.62 C19.01 110.23, 21.56 106.38, 28.54 99.01 M19.75 115.22 C21.76 111.65, 24.27 109.74, 28.94 104.66 M19.75 115.22 C23.37 111.23, 26.13 107.83, 28.94 104.66 M23.43 117.09 C25.69 114.29, 27.6 112.2, 29.99 109.54 M23.43 117.09 C25.41 115.38, 26.92 113.13, 29.99 109.54" stroke="#868e96" stroke-width="0.5" fill="none"></path><path d="M7.09 0 M7.09 0 C9.4 -1.04, 12.72 -1.11, 21.26 0 M21.26 0 C24.75 -1.44, 29.2 1.6, 28.35 7.09 M28.35 7.09 C29.66 46.46, 27.15 84.06, 28.35 108.35 M28.35 108.35 C29.12 112.8, 24.21 114.47, 21.26 115.44 M21.26 115.44 C17.67 116.48, 13.72 114.4, 7.09 115.44 M7.09 115.44 C4.34 115.6, -0.47 114.03, 0 108.35 M0 108.35 C-0.53 80.2, 0.48 53.83, 0 7.09 M0 7.09 C-0.67 2.53, 3.54 -1.71, 7.09 0" stroke="#0b7285" stroke-width="1.5" fill="none" stroke-dasharray="8 9"></path></g><g transform="translate(1339.572916666667 386.6328125) rotate(0 118 50)"><text x="0" y="18" font-family="Virgil, Segoe UI Emoji" font-size="20px" fill="#0b7285" text-anchor="start" style="white-space: pre;" direction="ltr">Settle the payment</text><text x="0" y="43" font-family="Virgil, Segoe UI Emoji" font-size="20px" fill="#0b7285" text-anchor="start" style="white-space: pre;" direction="ltr"></text><text x="0" y="68" font-family="Virgil, Segoe UI Emoji" font-size="20px" fill="#0b7285" text-anchor="start" style="white-space: pre;" direction="ltr">(possible payment Error)</text><text x="0" y="93" font-family="Virgil, Segoe UI Emoji" font-size="20px" fill="#0b7285" text-anchor="start" style="white-space: pre;" direction="ltr"></text></g></svg>